<svg width="48" height="48" viewBox="0 0 48 48" fill="none" xmlns="http://www.w3.org/2000/svg">
<path d="M22.0025 4.72123C19.403 6.22689 17.2061 9.48263 16.4971 12.6162C15.8845 12.5901 15.1755 12.7914 14.4315 13.22C12.3133 14.4454 10.554 17.1677 10.1251 19.6884C9.89751 19.776 9.64378 19.8986 9.3987 20.0384C7.11418 21.3513 5.27617 24.5375 5.27617 27.1718C5.2849 28.4676 5.74004 29.3775 6.48404 29.8066L2.1602 27.2945C1.42484 26.8658 0.9698 25.9556 0.960968 24.6601C0.952232 22.0343 2.79898 18.8482 5.07476 17.5268C5.31985 17.3866 5.57358 17.2639 5.80993 17.1853C6.23876 14.6556 7.99815 11.9336 10.1163 10.7084C10.8603 10.2792 11.5693 10.087 12.182 10.104C12.8822 6.97943 15.0792 3.71476 17.6874 2.20948C19.2892 1.29019 20.7333 1.20254 21.7837 1.80647L26.1075 4.3186C25.0573 3.70622 23.6043 3.79339 22.0025 4.72123Z" fill="#7BB1FF"/>
<path d="M31.2766 8.81C30.5239 8.37234 29.4823 8.44242 28.3356 9.09887C28.0994 9.23903 27.863 9.39676 27.6354 9.5805L23.3203 7.06847C23.5479 6.88472 23.7754 6.73592 24.0205 6.59576C25.1672 5.93077 26.2088 5.86924 26.9614 6.3069L31.2766 8.81Z" fill="#7BB1FF"/>
<path d="M22.0044 4.72012C25.1841 2.88432 27.7744 4.35388 27.7847 8.01398C27.7862 8.52124 27.7373 9.0383 27.6436 9.57503C27.867 9.39446 28.1016 9.23971 28.3419 9.10099C30.6219 7.78463 32.4777 8.83555 32.4852 11.462C32.4926 14.0756 30.6489 17.2624 28.3688 18.5788L9.42444 29.5163C7.14435 30.8327 5.28866 29.7818 5.28127 27.1682C5.27378 24.5417 7.11756 21.3549 9.39756 20.0386C9.64342 19.8966 9.89503 19.7771 10.1298 19.6929C10.5593 17.168 12.3148 14.4436 14.4328 13.2207C15.176 12.7916 15.8863 12.5937 16.5021 12.6179C17.2041 9.48547 19.4002 6.22358 22.0044 4.72012Z" fill="#5793FB"/>
<path d="M14.4465 21.6484L14.4448 22.2519L12.8594 23.1733L12.8611 22.5698L14.4465 21.6484Z" fill="#9DA9C1"/>
<path d="M15.7359 22.0742L15.7337 22.862L13.6641 24.0647L13.6663 23.277L15.7359 22.0742Z" fill="#272E3A"/>
<path d="M13.6636 23.277L13.6614 24.0647L11.5781 22.8619L11.5803 22.0742L13.6636 23.277Z" fill="#373F51"/>
<path d="M15.7311 22.0739L13.6614 23.2767L11.5781 22.0739L13.6478 20.8711L15.7311 22.0739Z" fill="#4C5671"/>
<path d="M16.5516 24.8079C16.8146 24.9598 17.0257 25.3254 17.0248 25.6276L17.023 33.2064C17.0225 33.3829 17.1519 33.6072 17.3091 33.6979L21.2642 35.9684L21.2636 36.1841L17.3085 33.9136C17.0455 33.7617 16.8344 33.3963 16.8352 33.0979L16.8371 25.5192C16.8375 25.3386 16.7081 25.1184 16.551 25.0276L14.0781 23.6065L14.0787 23.3867L16.5516 24.8079Z" fill="#EFA143"/>
<path d="M22.3955 35.3089L18.4432 33.0415C18.2827 32.9503 18.1543 32.7256 18.1543 32.5492V24.9718C18.1597 24.6674 17.9456 24.3029 17.6834 24.148L15.2125 22.7305L14.0781 23.3888L16.5545 24.8058C16.8167 24.9613 17.0254 25.3252 17.0254 25.6301V33.2069C17.0254 33.3839 17.1538 33.6086 17.309 33.6993L21.2665 35.9667L22.3955 35.3089Z" fill="#FFDD94"/>
<path d="M21.2656 35.967V36.1862L22.3947 35.5279V35.3086L21.2656 35.967Z" fill="#4C5671"/>
<path d="M18.6419 19.207L18.6401 19.8105L17.0547 20.7318L17.0564 20.1284L18.6419 19.207Z" fill="#9DA9C1"/>
<path d="M19.9312 19.6328L19.929 20.4205L17.8594 21.6233L17.8616 20.8356L19.9312 19.6328Z" fill="#272E3A"/>
<path d="M17.8589 20.8356L17.8567 21.6233L15.7734 20.4205L15.7756 19.6328L17.8589 20.8356Z" fill="#373F51"/>
<path d="M19.9264 19.6325L17.8567 20.8353L15.7734 19.6325L17.8431 18.4297L19.9264 19.6325Z" fill="#4C5671"/>
<path d="M20.7469 22.3665C21.0099 22.5184 21.221 22.884 21.2202 23.1862L21.2183 30.765C21.2179 30.9415 21.3473 31.1658 21.5044 31.2565L25.4595 33.527L25.4589 33.7427L21.5038 31.4722C21.2408 31.3203 21.0297 30.9548 21.0306 30.6565L21.0324 23.0778C21.0329 22.8972 20.9035 22.677 20.7463 22.5862L18.2734 21.1651L18.274 20.9453L20.7469 22.3665Z" fill="#EFA143"/>
<path d="M26.5908 32.8675L22.6386 30.6001C22.478 30.5089 22.3496 30.2842 22.3496 30.1078V22.5304C22.355 22.226 22.1409 21.8615 21.8787 21.7066L19.4078 20.2891L18.2734 20.9474L20.7499 22.3644C21.012 22.5199 21.2207 22.8837 21.2207 23.1887V30.7655C21.2207 30.9425 21.3491 31.1672 21.5043 31.2579L25.4618 33.5253L26.5908 32.8675Z" fill="#FFDD94"/>
<path d="M25.4609 33.5256V33.7448L26.5899 33.0865V32.8672L25.4609 33.5256Z" fill="#4C5671"/>
<path d="M27.0326 14.332L27.0308 14.9355L25.4453 15.8568L25.447 15.2534L27.0326 14.332Z" fill="#9DA9C1"/>
<path d="M28.322 14.7578L28.3197 15.5455L26.25 16.7483L26.2523 15.9606L28.322 14.7578Z" fill="#272E3A"/>
<path d="M26.2496 15.9606L26.2473 16.7483L24.1641 15.5455L24.1663 14.7578L26.2496 15.9606Z" fill="#373F51"/>
<path d="M28.317 14.7575L26.2474 15.9603L24.1641 14.7575L26.2337 13.5547L28.317 14.7575Z" fill="#4C5671"/>
<path d="M29.1375 17.4915C29.4005 17.6434 29.6116 18.009 29.6108 18.3112L29.609 25.89C29.6085 26.0665 29.7379 26.2908 29.895 26.3815L33.8501 28.652L33.8496 28.8677L29.8945 26.5972C29.6314 26.4453 29.4203 26.0798 29.4212 25.7815L29.423 18.2028C29.4235 18.0222 29.2941 17.802 29.1369 17.7112L26.6641 16.2901L26.6646 16.0703L29.1375 17.4915Z" fill="#EFA143"/>
<path d="M34.9814 27.9925L31.0292 25.7251C30.8687 25.6339 30.7402 25.4092 30.7402 25.2327V17.6554C30.7456 17.351 30.5315 16.9865 30.2693 16.8316L27.7984 15.4141L26.6641 16.0724L29.1405 17.4894C29.4027 17.6449 29.6114 18.0087 29.6114 18.3137V25.8905C29.6114 26.0675 29.7397 26.2922 29.8949 26.3829L33.8524 28.6503L34.9814 27.9925Z" fill="#FFDD94"/>
<path d="M33.8516 28.6506V28.8698L34.9806 28.2115V27.9922L33.8516 28.6506Z" fill="#4C5671"/>
<path d="M22.8372 16.7695L22.8354 17.373L21.25 18.2944L21.2516 17.6909L22.8372 16.7695Z" fill="#9DA9C1"/>
<path d="M24.1266 17.1953L24.1244 17.9831L22.0547 19.1858L22.0569 18.3981L24.1266 17.1953Z" fill="#272E3A"/>
<path d="M22.0543 18.3981L22.052 19.1858L19.9688 17.9831L19.971 17.1953L22.0543 18.3981Z" fill="#373F51"/>
<path d="M24.1217 17.195L22.052 18.3978L19.9688 17.195L22.0384 15.9922L24.1217 17.195Z" fill="#4C5671"/>
<path d="M24.9422 19.929C25.2052 20.0809 25.4163 20.4465 25.4155 20.7487L25.4136 28.3275C25.4132 28.504 25.5426 28.7283 25.6997 28.819L29.6548 31.0895L29.6543 31.3052L25.6991 29.0347C25.4361 28.8828 25.225 28.5173 25.2259 28.219L25.2277 20.6403C25.2282 20.4597 25.0988 20.2395 24.9416 20.1487L22.4688 18.7276L22.4693 18.5078L24.9422 19.929Z" fill="#EFA143"/>
<path d="M30.7861 30.43L26.8339 28.1626C26.6734 28.0714 26.5449 27.8467 26.5449 27.6702V20.0929C26.5503 19.7885 26.3362 19.424 26.074 19.2691L23.6031 17.8516L22.4688 18.5099L24.9452 19.9269C25.2073 20.0824 25.416 20.4463 25.416 20.7512V28.328C25.416 28.505 25.5444 28.7297 25.6996 28.8204L29.6571 31.0878L30.7861 30.43Z" fill="#FFDD94"/>
<path d="M29.6562 31.088V31.3072L30.7852 30.649V30.4297L29.6562 31.088Z" fill="#4C5671"/>
<path d="M46.7646 32.9514L29.623 42.913C29.2521 43.1286 28.6476 43.1286 28.2727 42.9121L16.8784 36.3336C16.6896 36.2246 16.5953 36.0816 16.5958 35.9391L16.5859 39.4413C16.5856 39.5838 16.6797 39.7268 16.8686 39.8357L28.2628 46.4143C28.6377 46.6307 29.2423 46.6307 29.6132 46.4151L46.7548 36.4536C46.9398 36.346 47.0324 36.2054 47.0328 36.0648L47.0427 32.5625C47.0422 32.7033 46.9496 32.8439 46.7646 32.9514Z" fill="#4C5671"/>
<path d="M28.9692 43.0718C28.7182 43.0747 28.4653 43.0216 28.2727 42.9105L16.8785 36.332C16.6896 36.223 16.5953 36.08 16.5958 35.9375L16.5859 39.4397C16.5856 39.5822 16.6797 39.7252 16.8686 39.8341L28.2628 46.4127C28.4579 46.5253 28.715 46.5779 28.9692 46.5735V43.0718Z" fill="#373F51"/>
<path d="M46.7581 32.1666C47.133 32.383 47.135 32.7332 46.7626 32.9496L29.621 42.9113C29.25 43.1269 28.6455 43.1269 28.2707 42.9104L16.8764 36.3319C16.5015 36.1154 16.4995 35.7653 16.8705 35.5497L34.012 25.5881C34.3844 25.3717 34.989 25.3717 35.3639 25.5881L46.7581 32.1666Z" fill="#B4BED7"/>
<path d="M17.2656 38.8669L17.5288 39.3228L20.1809 40.8539L20.5526 40.642L20.5552 39.7334L17.2685 37.8359L17.2656 38.8669Z" fill="#272E3A"/>
<path d="M22.074 40.6094L22.0703 41.9439L28.0732 45.4097L28.077 44.0753L22.074 40.6094Z" fill="#272E3A"/>
<path d="M29.6183 42.3299L31.1363 41.4492L31.1339 42.0341L29.6183 42.9148C29.2459 43.1295 28.642 43.1295 28.2673 42.9148L26.7422 42.0341V41.4492L28.2697 42.3299C28.6444 42.5472 29.2483 42.5472 29.6183 42.3299Z" fill="#4C5671"/>
<path d="M32.4922 25.8906H36.8861V26.4733H32.4922V25.8906Z" fill="#4C5671"/>
<path d="M16.8779 35.7531L18.403 36.6339V37.2186L16.8755 36.3356C16.6869 36.2282 16.5914 36.0849 16.5938 35.9417V35.3594C16.5939 35.5001 16.6893 35.6432 16.8779 35.7531Z" fill="#4C5671"/>
<path d="M43.5475 32.9961L43.5451 33.5784C43.5451 33.7861 43.4018 33.9865 43.1489 34.1322L39.941 35.9963C39.6856 36.1467 39.3371 36.2302 38.9743 36.2278H37.9122C37.1579 36.2301 36.5469 36.5835 36.5469 37.0202L36.5493 36.4379C36.5493 36.0011 37.1579 35.6455 37.9146 35.6455H38.9767C39.3395 35.6455 39.688 35.562 39.9434 35.414L43.1513 33.5498C43.4043 33.4019 43.5475 33.2037 43.5475 32.9961Z" fill="#4C5671"/>
<path d="M36.5529 37.1302V37.7079C36.5529 37.9203 36.4097 38.1207 36.1543 38.2688L31.5764 40.9302C31.321 41.0781 30.975 41.1616 30.6121 41.1616H27.9938C27.631 41.1616 27.2825 41.0781 27.0247 40.9277L22.9051 38.5504C21.5589 37.7722 20.8882 36.7532 20.8906 35.7339V35.1562C20.8906 36.1731 21.5637 37.1923 22.9075 37.9656L27.0271 40.3453C27.2849 40.4934 27.6334 40.5768 27.9962 40.5792L30.6122 40.5768C30.975 40.5792 31.3234 40.4957 31.5788 40.3453L36.1567 37.6863C36.4097 37.5408 36.5529 37.3379 36.5529 37.1302Z" fill="#4C5671"/>
<path d="M47.0436 31.9815L47.0412 32.5664C47.0412 32.7072 46.9481 32.8456 46.7643 32.953L45.2487 33.8362L45.2344 31.2918V30.707L45.2487 33.2513L46.7667 32.3706C46.9505 32.2632 47.0436 32.1223 47.0436 31.9815Z" fill="#4C5671"/>
<path d="M43.1319 30.7593L36.5227 26.9435C36.2576 26.7904 35.8956 26.7059 35.5219 26.7112L33.0098 26.7446C32.6589 26.7489 32.3238 26.8324 32.0754 26.9767L28.6477 28.9687C28.3919 29.1174 28.2487 29.3189 28.2498 29.5284L28.2515 29.8152C28.254 30.2535 27.6438 30.608 26.8874 30.608H26.4742C26.1111 30.6072 25.7637 30.6908 25.5079 30.8395L22.8735 32.3704C20.2164 33.9144 20.232 36.4176 22.9065 37.9617L27.0256 40.3399C27.2832 40.4886 27.6315 40.5722 27.9946 40.573L30.6117 40.5721C30.9747 40.573 31.3221 40.4894 31.5779 40.3407L36.1548 37.6809C36.4106 37.5322 36.5538 37.3308 36.5526 37.1196L36.5472 36.4323C36.5462 35.9951 37.1563 35.6405 37.9113 35.6397H38.9746C39.3376 35.6406 39.6851 35.557 39.9409 35.4083L43.149 33.544C43.4049 33.3953 43.5481 33.1938 43.5453 32.9835L43.536 31.3205C43.5349 31.1095 43.3895 30.908 43.1319 30.7593Z" fill="#E3E7F0"/>
<path d="M46.7614 31.5847L45.2344 30.7031L45.2487 33.2475L46.7658 32.3659C47.1367 32.1503 47.1347 31.8003 46.7614 31.5847Z" fill="#E3E7F0"/>
<path d="M35.3597 25.0061C34.9848 24.7898 34.3802 24.7898 34.0093 25.0053L32.4922 25.8868L36.8866 25.8878L35.3597 25.0061Z" fill="#E3E7F0"/>
<path d="M16.8705 34.9675C16.4996 35.1831 16.5015 35.5333 16.8764 35.7497L18.4033 36.6313L18.3875 34.0859L16.8705 34.9675Z" fill="#E3E7F0"/>
<path d="M28.2692 42.3269C28.6425 42.5425 29.247 42.5425 29.618 42.3269L31.1351 41.4453H26.7422L28.2692 42.3269Z" fill="#E3E7F0"/>
<path d="M16.8678 36.7781L28.2621 43.3566C28.637 43.573 29.2416 43.573 29.6125 43.3575L46.7541 33.396C46.9391 33.2884 47.0317 33.1478 47.0321 33.0072L47.0332 32.6133C47.0127 32.7359 46.9258 32.8555 46.7641 32.9494L29.6224 42.911C29.2514 43.1266 28.6469 43.1266 28.2721 42.9101L16.8778 36.3316C16.689 36.2226 16.5947 36.0796 16.5952 35.9371L16.5938 36.4357C16.6136 36.5603 16.702 36.6823 16.8678 36.7781Z" fill="#9DA9C1"/>
<path d="M36.7081 28.5565C36.8694 28.6712 36.8716 28.864 36.7055 28.9828L36.1913 29.3509C36.0441 29.4563 35.8156 29.4659 35.6432 29.3777C34.9133 29.0115 33.9323 29.0097 33.2058 29.3757C33.0367 29.462 32.8055 29.4544 32.6572 29.3489L32.1396 28.9809C31.9616 28.8544 31.9769 28.6396 32.1751 28.5284C33.4914 27.8018 35.343 27.8036 36.6659 28.5303C36.6811 28.5384 36.6952 28.5472 36.7081 28.5565Z" fill="#B4BED7"/>
<path d="M32.1327 28.6684C33.4489 27.9418 35.3006 27.9437 36.6235 28.6703C36.6387 28.6783 36.6527 28.6872 36.6658 28.6961C36.7411 28.7501 36.7782 28.8208 36.7832 28.8925C36.8542 28.781 36.8277 28.6455 36.7024 28.5564C36.6894 28.547 36.6753 28.5386 36.66 28.5302C35.3373 27.8037 33.4855 27.8018 32.1693 28.5283C32.0597 28.5898 32.0119 28.6825 32.0158 28.7748C32.0425 28.7345 32.0803 28.6975 32.1327 28.6684Z" fill="#4C5671"/>
</svg>
