<svg width="48" height="48" viewBox="0 0 48 48" fill="none" xmlns="http://www.w3.org/2000/svg">
<path d="M36.4591 7.61822C36.1491 7.79274 35.5681 8.12193 35.5391 8.14132L40.3469 10.9404C40.3759 10.9205 40.9571 10.5913 41.267 10.4173C42.836 9.53582 44.2597 9.46775 45.3057 10.0683L40.4978 7.27914C39.4518 6.66906 38.0281 6.73674 36.4591 7.61822Z" fill="#5793FB"/>
<path d="M37.5177 4.7589C35.8281 3.7797 5.76108 38.4642 5.76108 39.4912C5.77068 40.9312 6.29868 41.9587 7.11468 42.4481L2.30508 39.645C1.48908 39.1748 0.970677 38.1473 0.961077 36.6881C0.941973 33.8466 2.89068 30.4481 5.38668 28.9988C5.61708 28.8643 6.07788 28.6149 6.10668 28.5957C6.07788 23.9682 9.24588 18.4388 13.2875 16.0965C14.7659 15.2612 16.1482 15.0114 17.3099 15.2711C18.4234 10.1926 21.9178 4.96981 26.1706 2.51269C28.7146 1.09141 31.0282 0.986004 32.7082 1.9558L37.5177 4.7589Z" fill="#5793FB"/>
<path d="M47.0377 13.8692C47.0569 17.5362 44.5513 21.9331 41.3353 23.7855C40.1353 24.4671 39.0025 24.6593 38.0714 24.4385C36.5929 27.8562 34.0681 30.9663 31.1305 32.6655C29.0954 33.8078 27.2234 34.0192 25.7546 33.4239C24.9578 33.7985 24.209 33.8946 23.585 33.7507C22.433 36.4 20.4842 38.8094 18.1994 40.1345C15.953 41.3922 13.9658 41.1808 12.7754 39.8369C12.0842 40.7969 11.2202 41.613 10.2506 42.1792C7.78345 43.5615 5.78665 42.3522 5.75785 39.4909C5.74825 36.64 7.68745 33.2416 10.193 31.7922C10.433 31.6577 10.8842 31.4078 10.9034 31.3891C10.8842 26.7616 14.0426 21.2323 18.0842 18.8993C19.5722 18.0546 20.9546 17.8048 22.1162 18.064C23.2298 12.9856 26.7242 7.76331 30.977 5.30562C36.1129 2.42571 40.3081 4.94101 40.3465 10.9311C40.3753 10.9217 40.9513 10.5856 41.2585 10.4131C44.4264 8.63701 47.0185 10.1825 47.0377 13.8692Z" fill="#7BB1FF"/>
<path d="M18 37.0198L18.0104 39.8248C18.0104 40.0592 18.0938 40.2209 18.2242 40.2993L29.1127 46.6256C28.9771 46.5475 28.8937 46.3856 28.8937 46.1511L28.8885 43.3461C28.8885 42.882 29.2169 42.3084 29.6237 42.074L42.9034 34.4043C43.1068 34.2895 43.2945 34.2791 43.43 34.3573L32.5414 28.0309C32.4059 27.9528 32.2234 27.9632 32.0148 28.0777L18.7404 35.7474C18.3284 35.9821 18 36.5556 18 37.0198Z" fill="#4C5671"/>
<path d="M29.6272 42.0717C29.2178 42.3081 28.8893 42.8809 28.8906 43.3476L28.8986 46.1515C28.8999 46.622 29.2306 46.8104 29.64 46.574L42.9189 38.9074C43.325 38.673 43.6569 38.1021 43.6555 37.6316L43.6476 34.8277C43.6462 34.3609 43.3122 34.1707 42.9061 34.4051L29.6272 42.0717Z" fill="#272E3A"/>
<path d="M37.4301 39.0352L37.4345 40.6073L30.0045 44.8971L30 43.3249L37.4301 39.0352Z" fill="#4C5671"/>
<path d="M40.1569 37.6102C40.4597 37.4353 40.7069 37.5761 40.7079 37.9281C40.7089 38.2761 40.4633 38.7014 40.1604 38.8763C39.8574 39.0512 39.6103 38.9104 39.6094 38.5624C39.6083 38.2103 39.8539 37.785 40.1569 37.6102Z" fill="#FFDD94"/>
<path d="M41.9928 36.5489C42.299 36.3722 42.5461 36.513 42.5472 36.8649C42.5482 37.2129 42.3026 37.6382 41.9964 37.815C41.6935 37.9899 41.4463 37.8491 41.4453 37.5011C41.4443 37.1491 41.6898 36.7238 41.9928 36.5489Z" fill="#77CB77"/>
<path d="M19.9922 34.0485V36.3223C19.9922 36.3809 20.0313 36.4394 20.1093 36.4861L28.8514 41.5662C29.0035 41.656 29.2571 41.656 29.4132 41.5625L41.8836 34.3673C41.9617 34.3205 42.0008 34.258 42.0008 34.1995L41.9968 31.9258C41.9968 31.9842 41.9578 32.0427 41.8798 32.0896L29.4093 39.2887C29.2532 39.3782 28.9996 39.3782 28.8474 39.2887L20.1054 34.2086C20.0273 34.1657 19.9922 34.107 19.9922 34.0485Z" fill="#373F51"/>
<path d="M18 30.9767L18.0104 33.7818C18.0104 34.0163 18.0938 34.1779 18.2242 34.2563L29.1127 40.5827C28.9771 40.5045 28.8937 40.3426 28.8937 40.1082L28.8885 37.3031C28.8885 36.839 29.2169 36.2655 29.6237 36.0309L42.9034 28.3614C43.1068 28.2466 43.2945 28.2361 43.43 28.3143L32.5414 21.988C32.4059 21.9098 32.2234 21.9202 32.0148 22.0348L18.7404 29.7043C18.3284 29.9391 18 30.5127 18 30.9767Z" fill="#4C5671"/>
<path d="M29.6272 36.0288C29.2178 36.2651 28.8893 36.8379 28.8906 37.3046L28.8986 40.1086C28.8999 40.579 29.2306 40.7674 29.64 40.5311L42.9189 32.8645C43.325 32.63 43.6569 32.0591 43.6555 31.5886L43.6476 28.7847C43.6462 28.3179 43.3122 28.1277 42.9061 28.3622L29.6272 36.0288Z" fill="#272E3A"/>
<path d="M37.4301 32.9922L37.4345 34.5645L30.0045 38.8542L30 37.282L37.4301 32.9922Z" fill="#4C5671"/>
<path d="M40.1569 31.5672C40.4597 31.3923 40.7069 31.5332 40.7079 31.8852C40.7089 32.2332 40.4633 32.6585 40.1604 32.8334C39.8574 33.0083 39.6103 32.8675 39.6094 32.5194C39.6083 32.1674 39.8539 31.7422 40.1569 31.5672Z" fill="#FFDD94"/>
<path d="M41.9928 30.506C42.299 30.3292 42.5461 30.47 42.5472 30.822C42.5482 31.17 42.3026 31.5953 41.9964 31.7721C41.6935 31.947 41.4463 31.8061 41.4453 31.4581C41.4443 31.1062 41.6898 30.6809 41.9928 30.506Z" fill="#77CB77"/>
<path d="M19.9922 27.7673V30.041C19.9922 30.0997 20.0313 30.1583 20.1093 30.2049L28.8514 35.285C29.0035 35.3748 29.2571 35.3748 29.4132 35.2812L41.8836 28.0862C41.9617 28.0393 42.0008 27.9768 42.0008 27.9183L41.9968 25.6445C41.9968 25.703 41.9578 25.7616 41.8798 25.8084L29.4093 33.0074C29.2532 33.097 28.9996 33.097 28.8474 33.0074L20.1054 27.9273C20.0273 27.8845 19.9922 27.8257 19.9922 27.7673Z" fill="#373F51"/>
<path d="M18 24.9338L18.0104 27.7389C18.0104 27.9733 18.0938 28.1349 18.2242 28.2134L29.1127 34.5397C28.9771 34.4615 28.8937 34.2997 28.8937 34.0652L28.8885 31.2601C28.8885 30.7961 29.2169 30.2225 29.6237 29.988L42.9034 22.3184C43.1068 22.2036 43.2945 22.1932 43.43 22.2714L32.5414 15.945C32.4059 15.8668 32.2234 15.8773 32.0148 15.9918L18.7404 23.6614C18.3284 23.8962 18 24.4698 18 24.9338Z" fill="#4C5671"/>
<path d="M29.6272 29.9858C29.2178 30.2222 28.8893 30.7949 28.8906 31.2617L28.8986 34.0655C28.8999 34.536 29.2306 34.7245 29.64 34.4881L42.9189 26.8215C43.325 26.587 43.6569 26.0161 43.6555 25.5456L43.6476 22.7418C43.6462 22.275 43.3122 22.0847 42.9061 22.3192L29.6272 29.9858Z" fill="#272E3A"/>
<path d="M37.4301 26.9492L37.4345 28.5214L30.0045 32.8112L30 31.239L37.4301 26.9492Z" fill="#4C5671"/>
<path d="M40.1569 25.5243C40.4597 25.3494 40.7069 25.4902 40.7079 25.8421C40.7089 26.1901 40.4633 26.6155 40.1604 26.7903C39.8574 26.9652 39.6103 26.8244 39.6094 26.4764C39.6083 26.1245 39.8539 25.6991 40.1569 25.5243Z" fill="#FFDD94"/>
<path d="M41.9928 24.463C42.299 24.2862 42.5461 24.427 42.5472 24.779C42.5482 25.127 42.3026 25.5522 41.9964 25.7291C41.6935 25.904 41.4463 25.7631 41.4453 25.4151C41.4443 25.0631 41.6898 24.6378 41.9928 24.463Z" fill="#77CB77"/>
</svg>
