<svg width="48" height="48" viewBox="0 0 48 48" fill="none" xmlns="http://www.w3.org/2000/svg">
<rect width="48" height="48" rx="8" fill="#1D2239"/>
<path fill-rule="evenodd" clip-rule="evenodd" d="M35.8813 21.4739C36.3024 19.158 35.8813 13.5497 29.9296 12.1341C28.2835 11.7426 24.3241 11.9473 20.8151 16.4096C19.8917 15.8692 18.8211 15.5652 17.6721 15.5652C15.3243 15.5652 13.1735 16.8321 12.3486 18.9343C11.2385 21.7927 12.6604 25.2634 18.3447 26.7371C17.6907 25.9897 14.7657 24.0002 14.9762 21.6844C15.1046 20.2723 16.4499 19.3686 17.4162 19.0425C18.972 18.5176 21.1887 18.6738 22.9228 20.262C24.1702 17.5902 26.5554 16.4211 28.3022 16.0001C31.6081 15.3685 35.2497 16.8422 35.8813 21.4739Z" fill="#147AFF"/>
<path fill-rule="evenodd" clip-rule="evenodd" d="M24.5234 19.5872C25.3969 18.9351 26.3398 18.5515 27.2672 18.402C32.769 17.7847 33.8451 21.5918 33.2361 23.6472C33.1221 24.0321 32.6756 25.5156 31.6479 26.263C32.6756 25.9828 33.7967 24.9381 34.1704 24.3945C36.2257 21.405 34.1934 16.7743 29.5622 17.017C27.6625 17.1153 25.8885 18.1761 24.5234 19.5872Z" fill="#147AFF"/>
<path opacity="0.5" fill-rule="evenodd" clip-rule="evenodd" d="M29.5223 18.416C29.6157 17.8555 30.2067 17.6869 30.5112 17.5916C31.3278 17.4066 32.6294 17.7541 33.3527 18.2292C32.1382 17.2015 30.862 16.9446 29.5223 17.0147C27.6226 17.113 25.8729 18.1928 24.5078 19.6038C25.3813 18.9517 26.3241 18.5681 27.2515 18.4186C28.2002 18.3181 28.8683 18.3226 29.5223 18.416Z" fill="#147AFF"/>
<path d="M17.4531 32.4584L27.0963 21.4336H31.0221L21.4814 32.4584H17.4531Z" fill="#147AFF"/>
<path d="M24.7656 30.4927L29.5932 35.9558H33.519L26.8252 28.0898L24.7656 30.4927Z" fill="#147AFF"/>
<path d="M17.3516 21.457L21.4311 26.1606L23.4907 23.7577L21.3798 21.457H17.3516Z" fill="#147AFF"/>
</svg>
