<svg width="18" height="18" viewBox="0 0 18 18" fill="none" xmlns="http://www.w3.org/2000/svg">
<g clip-path="url(#clip0_411_9250)">
<path d="M9 6.75V9.75" stroke="#F8A643" stroke-width="1.5" stroke-linecap="round" stroke-linejoin="round"/>
<path d="M7.77187 2.69242L1.69237 12.8429C1.56704 13.06 1.50072 13.306 1.50001 13.5566C1.49929 13.8073 1.5642 14.0537 1.68828 14.2715C1.81237 14.4892 1.9913 14.6707 2.20728 14.7978C2.42326 14.925 2.66876 14.9933 2.91937 14.9962H15.0799C15.3304 14.9933 15.5758 14.9249 15.7916 14.7978C16.0075 14.6707 16.1864 14.4893 16.3104 14.2717C16.4345 14.054 16.4994 13.8077 16.4988 13.5572C16.4982 13.3067 16.432 13.0607 16.3069 12.8437L10.2274 2.69167C10.0995 2.48054 9.91928 2.30597 9.70421 2.18481C9.48915 2.06365 9.24647 2 8.99962 2C8.75278 2 8.5101 2.06365 8.29504 2.18481C8.07997 2.30597 7.89978 2.48054 7.77187 2.69167V2.69242Z" stroke="#F8A643" stroke-width="1.5" stroke-linecap="round" stroke-linejoin="round"/>
<path d="M9 12H9.01" stroke="#F8A643" stroke-width="1.5" stroke-linecap="round" stroke-linejoin="round"/>
</g>
<defs>
<clipPath id="clip0_411_9250">
<rect width="18" height="18" fill="white"/>
</clipPath>
</defs>
</svg>
