<svg width="128" height="50" viewBox="0 0 128 50" fill="none" xmlns="http://www.w3.org/2000/svg">
<g clip-path="url(#clip0_411_5671)">
<path fill-rule="evenodd" clip-rule="evenodd" d="M44.8122 17.7711C45.6021 13.4271 44.8122 2.90701 33.648 0.251548C30.5603 -0.482869 23.1333 -0.0989416 16.5509 8.27163C14.8188 7.25788 12.8107 6.68766 10.6554 6.68766C6.25141 6.68766 2.2169 9.06413 0.669451 13.0074C-1.41278 18.3692 1.2544 24.8795 11.9171 27.6439C10.6903 26.242 5.20354 22.5101 5.59842 18.166C5.83924 15.5171 8.36283 13.822 10.1754 13.2104C13.0938 12.2257 17.2519 12.5187 20.5046 15.4979C22.8446 10.4861 27.3186 8.29315 30.5954 7.50337C36.7966 6.31859 43.6275 9.08299 44.8122 17.7711Z" fill="white"/>
<path opacity="0.3" fill-rule="evenodd" clip-rule="evenodd" d="M5.59956 18.9555C4.41484 18.9555 0.187986 16.7932 1.05352 12.168C-1.90375 17.7708 1.25554 25.2742 11.9182 27.6436C11.0576 26.4589 5.99451 22.9047 5.59956 18.9555Z" fill="white"/>
<path fill-rule="evenodd" clip-rule="evenodd" d="M23.5078 14.229C25.1463 13.0058 26.9149 12.2862 28.6545 12.0059C38.9749 10.8478 40.9935 17.9893 39.8511 21.8447C39.6372 22.5668 38.7997 25.3496 36.8719 26.7516C38.7997 26.2259 40.9026 24.2663 41.6036 23.2467C45.459 17.6389 41.6467 8.9526 32.9596 9.40782C29.3961 9.59222 26.0685 11.5822 23.5078 14.229Z" fill="white"/>
<path opacity="0.5" fill-rule="evenodd" clip-rule="evenodd" d="M32.8906 12.0317C33.0658 10.9802 34.1743 10.664 34.7455 10.4853C36.2773 10.1382 38.7189 10.79 40.0756 11.6812C37.7975 9.75352 35.4037 9.27151 32.8906 9.40303C29.3271 9.58743 26.045 11.6129 23.4844 14.2597C25.1229 13.0365 26.8914 12.3169 28.631 12.0366C30.4105 11.8479 31.6638 11.8565 32.8906 12.0317Z" fill="white"/>
<path d="M10.25 38.3795L28.3388 17.6992H35.7027L17.8063 38.3795H10.25Z" fill="white"/>
<path d="M23.9609 34.687L33.0165 44.9347H40.3804L27.8244 30.1797L23.9609 34.687Z" fill="white"/>
<path d="M10.0625 17.7422L17.7149 26.5651L21.5783 22.0578L17.6188 17.7422H10.0625Z" fill="white"/>
<path d="M70.0993 24.7629H65.4711C65.3868 24.164 65.214 23.6322 64.9537 23.1673C64.6928 22.6953 64.358 22.2938 63.9499 21.9627C63.5412 21.6315 63.0689 21.378 62.5336 21.2019C62.0053 21.0257 61.4314 20.9377 60.8113 20.9377C59.6912 20.9377 58.7157 21.216 57.8841 21.7725C57.0532 22.3219 56.4086 23.125 55.9504 24.1817C55.4928 25.2313 55.264 26.5064 55.264 28.0068C55.264 29.5496 55.4928 30.8458 55.9504 31.8954C56.4157 32.945 57.0635 33.7375 57.895 34.2729C58.726 34.8083 59.6879 35.076 60.7798 35.076C61.3923 35.076 61.9597 34.995 62.4809 34.833C63.0091 34.671 63.4776 34.435 63.8863 34.125C64.295 33.808 64.633 33.424 64.9004 32.9732C65.1754 32.5224 65.3657 32.0081 65.4711 31.4305L70.0993 31.4516C69.9798 32.4449 69.6803 33.4029 69.2015 34.3257C68.7292 35.2415 68.0917 36.0622 67.289 36.7878C66.4928 37.5063 65.5417 38.0769 64.4358 38.4996C63.3368 38.9152 62.0934 39.1231 60.7059 39.1231C58.7754 39.1231 57.0493 38.6863 55.5282 37.8128C54.0134 36.9393 52.8158 35.6748 51.9353 34.0193C51.0617 32.3639 50.625 30.3597 50.625 28.0068C50.625 25.6469 51.0688 23.6393 51.9564 21.9838C52.844 20.3283 54.0486 19.0674 55.57 18.2009C57.0917 17.3274 58.8037 16.8906 60.7059 16.8906C61.9597 16.8906 63.1222 17.0668 64.1928 17.4189C65.2705 17.7712 66.2249 18.2855 67.0564 18.9617C67.8874 19.631 68.564 20.4516 69.0852 21.4238C69.6135 22.3959 69.9515 23.5089 70.0993 24.7629Z" fill="white"/>
<path d="M76.3141 17.1836V38.8243H71.8125V17.1836H76.3141Z" fill="white"/>
<path d="M85.7693 39.1417C84.128 39.1417 82.709 38.793 81.5111 38.0955C80.3204 37.3911 79.4014 36.4119 78.753 35.158C78.1052 33.897 77.7812 32.4353 77.7812 30.7728C77.7812 29.0962 78.1052 27.631 78.753 26.3771C79.4014 25.1161 80.3204 24.1369 81.5111 23.4394C82.709 22.735 84.128 22.3828 85.7693 22.3828C87.4111 22.3828 88.8269 22.735 90.0171 23.4394C91.2149 24.1369 92.1378 25.1161 92.7856 26.3771C93.434 27.631 93.7579 29.0962 93.7579 30.7728C93.7579 32.4353 93.434 33.897 92.7856 35.158C92.1378 36.4119 91.2149 37.3911 90.0171 38.0955C88.8269 38.793 87.4111 39.1417 85.7693 39.1417ZM85.7905 35.6546C86.5372 35.6546 87.1606 35.4433 87.6611 35.0206C88.1611 34.5909 88.5378 34.0062 88.7916 33.2666C89.0524 32.5269 89.1823 31.685 89.1823 30.7411C89.1823 29.7971 89.0524 28.9553 88.7916 28.2156C88.5378 27.476 88.1611 26.8913 87.6611 26.4616C87.1606 26.0318 86.5372 25.817 85.7905 25.817C85.0367 25.817 84.403 26.0318 83.8889 26.4616C83.3813 26.8913 82.9975 27.476 82.7367 28.2156C82.4834 28.9553 82.3562 29.7971 82.3562 30.7411C82.3562 31.685 82.4834 32.5269 82.7367 33.2666C82.9975 34.0062 83.3813 34.5909 83.8889 35.0206C84.403 35.4433 85.0367 35.6546 85.7905 35.6546Z" fill="white"/>
<path d="M105.604 31.9136V22.5938H110.105V38.8243H105.783V35.8761H105.614C105.248 36.8272 104.639 37.5915 103.786 38.1691C102.941 38.7468 101.909 39.0356 100.69 39.0356C99.6051 39.0356 98.6507 38.7891 97.8268 38.2959C97.0024 37.8028 96.3578 37.1019 95.8931 36.1932C95.435 35.2844 95.2024 34.196 95.1953 32.928V22.5938H99.6969V32.1249C99.704 33.083 99.9611 33.8403 100.468 34.3968C100.976 34.9533 101.655 35.2316 102.508 35.2316C103.05 35.2316 103.557 35.1083 104.03 34.8617C104.501 34.6082 104.882 34.2348 105.17 33.7417C105.467 33.2486 105.611 32.6392 105.604 31.9136Z" fill="white"/>
<path d="M118.193 39.0885C116.96 39.0885 115.844 38.7715 114.843 38.1374C113.85 37.4964 113.061 36.556 112.476 35.3161C111.899 34.0692 111.609 32.5406 111.609 30.7302C111.609 28.8704 111.909 27.3241 112.508 26.0914C113.107 24.8515 113.903 23.9252 114.896 23.3123C115.896 22.6924 116.991 22.3825 118.182 22.3825C119.091 22.3825 119.848 22.5374 120.454 22.8474C121.067 23.1503 121.56 23.5307 121.933 23.9886C122.314 24.4394 122.602 24.8832 122.8 25.32H122.937V17.1836H127.428V38.8243H122.99V36.2248H122.8C122.589 36.6757 122.289 37.123 121.902 37.5668C121.521 38.0036 121.025 38.3664 120.412 38.6552C119.806 38.944 119.066 39.0885 118.193 39.0885ZM119.619 35.5063C120.345 35.5063 120.958 35.3091 121.458 34.9146C121.965 34.513 122.352 33.953 122.62 33.2345C122.895 32.5159 123.032 31.6741 123.032 30.709C123.032 29.7439 122.899 28.9057 122.631 28.1941C122.363 27.4827 121.976 26.9332 121.469 26.5457C120.961 26.1583 120.345 25.9646 119.619 25.9646C118.879 25.9646 118.256 26.1653 117.749 26.5669C117.242 26.9684 116.858 27.5249 116.597 28.2364C116.337 28.9479 116.206 29.7721 116.206 30.709C116.206 31.653 116.337 32.4878 116.597 33.2133C116.865 33.9319 117.249 34.4954 117.749 34.904C118.256 35.3055 118.879 35.5063 119.619 35.5063Z" fill="white"/>
</g>
<defs>
<clipPath id="clip0_411_5671">
<rect width="127.717" height="50" fill="white"/>
</clipPath>
</defs>
</svg>
